<svg width="186" height="273" viewBox="0 0 186 273" fill="none" xmlns="http://www.w3.org/2000/svg">
<path d="M18.8333 87.1078V246.776H146.618V87.1078C146.618 55.1745 126.958 23.2405 87.6402 23.2406C48.322 23.2407 19.2437 30.9737 18.8333 87.1078Z" fill="black"/>
<ellipse cx="141.096" cy="35.5038" rx="20.8386" ry="22.1375" fill="#F4F3F1"/>
<path d="M161.125 240.288C161.125 254.513 150.445 266.045 137.271 266.045C124.096 266.045 113.417 254.513 113.417 240.288C113.417 226.064 124.096 214.532 137.271 214.532C150.445 214.532 161.125 226.064 161.125 240.288Z" fill="#FEC590"/>
<path d="M34.8631 199.066L37.4548 217.69L45.1146 200.703L42.4082 219.308L54.4552 205.467L46.6913 222.401L62.0549 212.935L49.9232 226.693L67.2386 222.444L51.8171 231.804L69.5454 233.149L52.2043 237.278L68.7707 244.099L51.0509 242.631L64.9831 254.32L48.4591 247.386L58.5192 262.905L44.6591 251.12L49.9534 269.09L39.9889 253.502L40.0468 272.327L34.8631 254.32L29.6794 272.327L29.7373 253.502L19.7727 269.09L25.0671 251.12L11.2069 262.905L21.2672 247.386L4.74299 254.32L18.6753 242.631L0.955371 244.099L17.5219 237.278L0.180634 233.149L17.9092 231.804L2.48756 222.444L19.803 226.693L7.67123 212.935L23.0349 222.401L15.271 205.467L27.318 219.308L24.6116 200.703L32.2714 217.69L34.8631 199.066Z" fill="#B0D7C5"/>
<ellipse rx="18.0698" ry="19.7485" transform="matrix(-1 0 0 1 21.4564 129.628)" fill="#DE3E43"/>
<path d="M153.337 105.42L155.765 121.695L162.942 106.85L160.407 123.11L171.694 111.014L164.42 125.812L178.815 117.54L167.448 129.564L183.672 125.851L169.222 134.03L185.833 135.206L169.585 138.814L185.108 144.775L168.505 143.492L181.559 153.707L166.076 147.647L175.502 161.209L162.516 150.91L167.476 166.615L158.14 152.992L158.194 169.443L153.337 153.707L148.48 169.443L148.534 152.992L139.198 166.615L144.158 150.91L131.172 161.209L140.598 147.647L125.115 153.707L138.169 143.492L121.566 144.775L137.089 138.814L120.84 135.206L137.452 134.03L123.002 125.851L139.226 129.564L127.859 117.54L142.254 125.812L134.98 111.014L146.267 123.11L143.732 106.85L150.909 121.695L153.337 105.42Z" fill="#F4D7F5"/>
<path d="M30.0542 0.943848L32.2866 18.5149L38.8843 2.48788L36.5531 20.0417L46.9297 6.98276L40.2423 22.9596L53.4757 14.0291L43.0261 27.0094L57.9407 23.0008L44.6574 31.8312L59.9276 33.1006L44.9909 36.9964L59.2603 43.4313L43.9974 42.0465L55.9979 53.0749L41.7651 46.5324L50.4303 61.1744L38.4919 50.0554L43.0521 67.0102L34.4692 52.3028L34.5192 70.0637L30.0542 53.0749L25.5892 70.0637L25.6391 52.3028L17.0562 67.0102L21.6164 50.0554L9.67804 61.1744L18.3434 46.5324L4.11039 53.0749L16.1109 42.0465L0.84795 43.4313L15.1174 36.9964L0.180634 33.1006L15.4511 31.8312L2.16769 23.0008L17.0823 27.0094L6.63262 14.0291L19.866 22.9596L13.1786 6.98276L23.5552 20.0417L21.2241 2.48788L27.8218 18.5149L30.0542 0.943848Z" fill="#313A49"/>
</svg>
