<svg width="412" height="460" viewBox="0 0 412 460" fill="none" xmlns="http://www.w3.org/2000/svg">
<path d="M36.3472 146.437L36.3469 146.461V146.485V411.396C36.3469 416.919 40.8241 421.396 46.3469 421.396H319.604C325.046 421.396 329.604 417.06 329.604 411.457V146.485C329.604 118.137 318.154 89.808 295.323 68.5963C272.47 47.3636 238.505 33.5202 193.87 33.5203C150.332 33.5204 111.21 36.7208 82.8302 52.5515C68.4832 60.5546 56.8842 71.7746 48.8646 87.2865C40.877 102.736 36.5798 122.169 36.3472 146.437Z" fill="black" stroke="url(#paint0_linear_1_2)" stroke-width="10"/>
<ellipse cx="312.364" cy="59.2505" rx="46.1925" ry="37.4223" fill="#F4F3F1"/>
<path d="M356.762 405.429C356.762 429.476 333.088 448.969 303.885 448.969C274.682 448.969 251.008 429.476 251.008 405.429C251.008 381.383 274.682 361.89 303.885 361.89C333.088 361.89 356.762 381.383 356.762 405.429Z" fill="#FEC590"/>
<path d="M76.8799 335.745L82.6249 367.227L99.6042 338.511L93.605 369.963L120.309 346.565L103.099 375.191L137.155 359.19L110.263 382.447L148.646 375.265L114.461 391.086L153.76 393.361L115.32 400.341L152.042 411.871L112.763 409.39L143.646 429.149L107.018 417.427L129.318 443.661L98.5945 423.739L110.33 454.118L88.242 427.766L88.3705 459.589L76.8799 429.149L65.3892 459.589L65.5177 427.766L43.4294 454.118L55.1652 423.739L24.4416 443.661L46.742 417.427L10.1132 429.149L40.9968 409.39L1.71728 411.871L38.4399 400.341L-6.10352e-05 393.361L39.2986 391.086L5.11366 375.265L43.4965 382.447L16.6042 359.19L50.6605 375.191L33.4504 346.565L60.1547 369.963L54.1555 338.511L71.1348 367.227L76.8799 335.745Z" fill="#B0D7C5"/>
<ellipse rx="40.055" ry="33.3839" transform="matrix(-1 0 0 1 47.1614 218.363)" fill="#DE3E43"/>
<path d="M339.499 177.44L344.882 204.953L360.791 179.858L355.17 207.344L380.191 186.896L364.066 211.913L395.975 197.93L370.778 218.254L406.742 211.978L374.712 225.804L411.533 227.792L375.516 233.892L409.924 243.968L373.12 241.8L402.057 259.068L367.737 248.823L388.632 271.75L359.845 254.34L370.841 280.888L350.145 257.859L350.265 285.669L339.499 259.068L328.732 285.669L328.853 257.859L308.156 280.888L319.153 254.34L290.365 271.75L311.26 248.823L276.94 259.068L305.877 241.8L269.073 243.968L303.481 233.892L267.464 227.792L304.286 225.804L272.256 211.978L308.219 218.254L283.022 197.93L314.932 211.913L298.806 186.896L323.828 207.344L318.207 179.858L334.116 204.953L339.499 177.44Z" fill="#F4D7F5"/>
<path d="M66.22 0.828613L71.1685 30.5317L85.7935 3.43872L80.6262 33.1127L103.628 11.0371L88.8039 38.0452L118.138 22.9486L94.9747 44.8911L128.035 38.1149L98.5906 53.0422L132.44 55.1881L99.33 61.7737L130.961 72.6516L97.1277 70.3107L123.729 88.9537L92.1793 77.8939L111.387 102.645L84.9238 83.8494L95.0323 112.511L76.0068 87.6485L76.1174 117.672L66.22 88.9537L56.3226 117.672L56.4333 87.6485L37.4076 112.511L47.5162 83.8494L21.0526 102.645L40.261 77.8939L8.71095 88.9537L35.3123 70.3107L1.47917 72.6516L33.11 61.7737L-6.10352e-05 55.1881L33.8496 53.0422L4.40461 38.1149L37.4655 44.8911L14.3019 22.9486L43.6362 38.0452L28.8123 11.0371L51.8139 33.1127L46.6466 3.43872L61.2716 30.5317L66.22 0.828613Z" fill="#313A49"/>
<defs>
<linearGradient id="paint0_linear_1_2" x1="182.975" y1="38.5203" x2="182.975" y2="416.396" gradientUnits="userSpaceOnUse">
<stop stop-color="white"/>
<stop offset="0.833333"/>
</linearGradient>
</defs>
</svg>
