<svg width="144" height="25" viewBox="0 0 144 25" fill="none" xmlns="http://www.w3.org/2000/svg">
<path d="M118.687 1.32197L118.968 18.6377H118.83L114.18 1.32197H106.559V23.1343H111.601L111.32 5.21548H111.458L116.434 23.1343H123.729V1.32197H118.687ZM22.6155 1.32197L18.805 23.3611H24.3111L27.1221 3.30974H27.2382L29.9823 23.3611H35.4438L31.6778 1.32197H22.6155ZM53.4301 1.32197L50.918 18.1311H50.7797L48.2453 1.32197H39.9236L39.5265 23.3611H44.64L44.7783 3.5365H44.8229L48.2408 23.3611H53.4212L56.8391 3.5365H56.9774L57.1157 23.3611H62.2292L61.7428 1.32197H53.4301ZM10.2022 17.1035C10.4119 17.6052 10.3406 18.3579 10.2736 18.7101C10.1353 19.4627 9.64448 20.1913 8.29696 20.1913C6.99405 20.1913 6.25336 19.3855 6.25336 18.2083V16.071H0.79187V17.7548C0.79187 22.7049 4.39271 24.162 8.23003 24.162C11.9023 24.162 14.9676 22.7821 15.4585 19.1636C15.7396 17.253 15.5299 15.9986 15.4585 15.5451C14.5036 10.8941 6.72187 9.59146 6.18643 7.00061C6.11443 6.61044 6.11443 6.20874 6.18643 5.81857C6.32475 5.09004 6.7888 4.33739 8.02031 4.33739C9.25183 4.33739 9.92559 5.14311 9.92559 6.32033V7.65194H15.039V6.11769C15.039 1.31715 11.0188 0.588623 8.15863 0.588623C4.53103 0.588623 1.53702 1.89611 1.00158 5.43742C0.817039 6.41954 0.841452 7.43417 1.07298 8.40459C1.88506 12.9543 9.18489 14.2859 10.2067 17.0986L10.2022 17.1035ZM76.5522 17.1035C76.7619 17.6052 76.6905 18.2855 76.6236 18.7101C76.4853 19.4627 75.9944 20.1913 74.6469 20.1913C73.344 20.1913 72.6033 19.3855 72.6033 18.2083V16.071H67.1418V17.7548C67.1418 22.6277 70.6757 24.1137 74.5086 24.1137C78.1808 24.1137 81.1793 22.7821 81.6656 19.0864C81.9468 17.1758 81.737 15.9938 81.6656 15.4679C80.8536 10.8941 73.1388 9.51426 72.6033 7.00061C72.5313 6.61044 72.5313 6.20874 72.6033 5.81857C72.7193 5.09004 73.2057 4.33739 74.4372 4.33739C75.5973 4.33739 76.3425 5.14311 76.3425 6.32033V7.65194H81.3845V6.11769C81.3845 1.31715 77.4357 0.588623 74.5755 0.588623C70.9479 0.588623 68.0208 1.81891 67.4854 5.43742C67.3471 6.3927 67.3471 7.29491 67.53 8.40459C68.3689 12.9543 75.5259 14.2087 76.5477 17.0986L76.5522 17.1035ZM93.7264 20.0465C95.1677 20.0465 95.5603 19.014 95.7031 18.4399C95.7745 18.2131 95.7745 17.8368 95.7745 17.6101V1.3268H100.955V17.1807C100.955 17.6101 100.955 18.4351 100.883 18.6377C100.558 22.7821 97.537 24.1137 93.7934 24.1137C90.0498 24.1137 87.0557 22.7821 86.7032 18.6377C86.7032 18.4351 86.6319 17.6052 86.6319 17.1807V1.3268H91.8122V17.6101C91.8122 17.914 91.8122 18.2131 91.8836 18.4399C91.8836 19.0189 92.3031 20.0465 93.7175 20.0465H93.7264ZM136.281 19.8198C137.793 19.8198 138.257 18.7873 138.396 18.2131C138.467 17.9864 138.467 17.6101 138.467 17.4074V14.2183H136.352V10.9761H143.58V16.8815C143.58 17.3351 143.58 17.6101 143.509 18.3627C143.161 22.4106 139.953 23.8146 136.352 23.8146C132.724 23.8146 129.543 22.4058 129.195 18.3627C129.124 17.6101 129.123 17.3302 129.123 16.8815V7.58439C129.123 7.23219 129.195 6.47955 129.195 6.12735C129.659 1.98296 132.729 0.651346 136.352 0.651346C139.953 0.651346 143.09 1.98296 143.509 6.12735C143.58 6.77868 143.58 7.58439 143.58 7.58439V8.33704H138.467V7.08263C138.467 7.08263 138.467 6.55674 138.396 6.25278C138.324 5.75102 137.909 4.64617 136.352 4.64617C134.839 4.64617 134.447 5.67865 134.308 6.25278C134.237 6.55674 134.237 6.93307 134.237 7.30939V17.4122C134.237 17.6872 134.237 17.9912 134.308 18.218C134.308 18.7969 134.844 19.8246 136.285 19.8246L136.281 19.8198Z" fill="white"/>
</svg>
