<svg width="205" height="31" viewBox="0 0 205 31" fill="none" xmlns="http://www.w3.org/2000/svg">
<path d="M169.067 0.964391L169.47 23.7354H169.272L162.606 0.964391H151.679V29.6486H158.908L158.505 6.08453H158.704L165.837 29.6486H176.296V0.964391H169.067ZM31.3266 0.964391L25.8633 29.9468H33.7575L37.7879 3.57839H37.9542L41.8885 29.9468H49.7188L44.3195 0.964391H31.3266ZM75.5064 0.964391L71.9047 23.0692H71.7064L68.0727 0.964391H56.1418L55.5724 29.9468H62.9037L63.102 3.87659H63.166L68.0663 29.9468H75.4936L80.394 3.87659H80.5923L80.7906 29.9468H88.1219L87.4246 0.964391H75.5064ZM13.5292 21.7178C13.8299 22.3776 13.7275 23.3674 13.6316 23.8305C13.4333 24.8203 12.7296 25.7783 10.7976 25.7783C8.92956 25.7783 7.86761 24.7188 7.86761 23.1707V20.36H0.0372925V22.5743C0.0372925 29.0839 5.19993 31 10.7016 31C15.9666 31 20.3616 29.1854 21.0653 24.4269C21.4683 21.9145 21.1676 20.2648 21.0653 19.6684C19.6962 13.5522 8.53932 11.8391 7.77165 8.43205C7.66841 7.91897 7.66841 7.3907 7.77165 6.87761C7.96996 5.91957 8.63528 4.9298 10.4009 4.9298C12.1666 4.9298 13.1326 5.98936 13.1326 7.53746V9.28858H20.4639V7.27098C20.4639 0.958043 14.6999 0 10.5993 0C5.39824 0 1.10564 1.7194 0.337966 6.37638C0.0733786 7.66791 0.10838 9.00221 0.440323 10.2783C1.60463 16.2614 12.0706 18.0125 13.5356 21.7114L13.5292 21.7178ZM108.657 21.7178C108.958 22.3776 108.856 23.2722 108.76 23.8305C108.561 24.8203 107.858 25.7783 105.926 25.7783C104.058 25.7783 102.996 24.7188 102.996 23.1707V20.36H95.1654V22.5743C95.1654 28.9824 100.232 30.9366 105.727 30.9366C110.992 30.9366 115.291 29.1854 115.989 24.3254C116.392 21.8129 116.091 20.2585 115.989 19.5669C114.824 13.5522 103.763 11.7376 102.996 8.43205C102.892 7.91897 102.892 7.3907 102.996 6.87761C103.162 5.91957 103.859 4.9298 105.625 4.9298C107.288 4.9298 108.357 5.98936 108.357 7.53746V9.28858H115.586V7.27098C115.586 0.958043 109.924 0 105.823 0C100.622 0 96.4256 1.61789 95.658 6.37638C95.4596 7.63263 95.4596 8.81907 95.7219 10.2783C96.9246 16.2614 107.186 17.911 108.651 21.7114L108.657 21.7178ZM133.281 25.588C135.347 25.588 135.91 24.2303 136.115 23.4752C136.217 23.177 136.217 22.6822 136.217 22.384V0.970732H143.644V21.8193C143.644 22.384 143.644 23.4689 143.542 23.7354C143.075 29.1854 138.744 30.9366 133.377 30.9366C128.009 30.9366 123.717 29.1854 123.211 23.7354C123.211 23.4689 123.109 22.3776 123.109 21.8193V0.970732H130.536V22.384C130.536 22.7837 130.536 23.177 130.638 23.4752C130.638 24.2366 131.24 25.588 133.268 25.588H133.281ZM194.292 25.2898C196.46 25.2898 197.126 23.9321 197.324 23.177C197.426 22.8788 197.426 22.384 197.426 22.1175V17.9237H194.394V13.66H204.758V21.4259C204.758 22.0223 204.758 22.384 204.655 23.3737C204.156 28.6969 199.557 30.5432 194.394 30.5432C189.193 30.5432 184.632 28.6905 184.133 23.3737C184.03 22.384 184.03 22.016 184.03 21.4259V9.19975C184.03 8.73659 184.133 7.74683 184.133 7.28367C184.798 1.83361 189.2 0.0824837 194.394 0.0824837C199.557 0.0824837 204.054 1.83361 204.655 7.28367C204.758 8.1402 204.758 9.19975 204.758 9.19975V10.1895H197.426V8.53992C197.426 8.53992 197.426 7.84834 197.324 7.44863C197.222 6.78878 196.627 5.33586 194.394 5.33586C192.225 5.33586 191.662 6.69361 191.464 7.44863C191.362 7.84834 191.362 8.34323 191.362 8.83811V22.1238C191.362 22.4855 191.362 22.8852 191.464 23.1834C191.464 23.9447 192.232 25.2962 194.298 25.2962L194.292 25.2898Z" fill="white"/>
</svg>
