<svg width="66" height="14" viewBox="0 0 66 14" fill="none" xmlns="http://www.w3.org/2000/svg">
<path d="M53.9748 1.22869L54.1035 10.191H54.0402L51.9116 1.22869H48.4225V12.5184H50.7308L50.6021 3.2439H50.6655L52.9432 12.5184H56.2831V1.22869H53.9748ZM9.99132 1.22869L8.24677 12.6357H10.7676L12.0545 2.25752H12.1077L13.364 12.6357H15.8644L14.1402 1.22869H9.99132ZM24.0989 1.22869L22.9488 9.9288H22.8855L21.7251 1.22869H17.9153L17.7335 12.6357H20.0746L20.1379 2.37489H20.1583L21.7231 12.6357H24.0948L25.6596 2.37489H25.7229L25.7862 12.6357H28.1273L27.9046 1.22869H24.0989ZM4.30826 9.39691C4.40427 9.65661 4.37159 10.0462 4.34094 10.2285C4.27762 10.618 4.05291 10.9951 3.43598 10.9951C2.83949 10.9951 2.50038 10.5781 2.50038 9.96876V8.86251H0V9.73402C0 12.2961 1.64854 13.0503 3.40534 13.0503C5.08657 13.0503 6.48997 12.3361 6.71467 10.4632C6.84337 9.47432 6.74736 8.82506 6.71467 8.59032C6.27752 6.18306 2.71488 5.50883 2.46974 4.16785C2.43678 3.96591 2.43678 3.75799 2.46974 3.55605C2.53307 3.17897 2.74552 2.78942 3.30933 2.78942C3.87314 2.78942 4.18161 3.20644 4.18161 3.81575V4.50497H6.52265V3.71087C6.52265 1.22619 4.68209 0.849121 3.37266 0.849121C1.71186 0.849121 0.341147 1.52585 0.0960115 3.35877C0.011523 3.8671 0.0226997 4.39225 0.128696 4.89452C0.500485 7.24935 3.8425 7.93856 4.3103 9.39441L4.30826 9.39691ZM34.6847 9.39691C34.7807 9.65661 34.748 10.0087 34.7173 10.2285C34.654 10.618 34.4293 10.9951 33.8124 10.9951C33.2159 10.9951 32.8768 10.5781 32.8768 9.96876V8.86251H30.3764V9.73402C30.3764 12.2562 31.9943 13.0253 33.7491 13.0253C35.4303 13.0253 36.803 12.3361 37.0257 10.4232C37.1544 9.43436 37.0584 8.82256 37.0257 8.55037C36.6539 6.18306 33.1219 5.46887 32.8768 4.16785C32.8438 3.96591 32.8438 3.75799 32.8768 3.55605C32.9299 3.17897 33.1526 2.78942 33.7164 2.78942C34.2475 2.78942 34.5886 3.20644 34.5886 3.81575V4.50497H36.897V3.71087C36.897 1.22619 35.0891 0.849121 33.7797 0.849121C32.1189 0.849121 30.7788 1.4859 30.5337 3.35877C30.4704 3.85321 30.4704 4.32018 30.5541 4.89452C30.9382 7.24935 34.2148 7.89861 34.6826 9.39441L34.6847 9.39691ZM42.5474 10.9202C43.2072 10.9202 43.387 10.3858 43.4523 10.0886C43.485 9.97125 43.485 9.77647 43.485 9.65911V1.23119H45.8567V9.43686C45.8567 9.65911 45.8567 10.0861 45.824 10.191C45.6749 12.3361 44.2919 13.0253 42.578 13.0253C40.8641 13.0253 39.4934 12.3361 39.332 10.191C39.332 10.0861 39.2993 9.65661 39.2993 9.43686V1.23119H41.671V9.65911C41.671 9.81643 41.671 9.97125 41.7037 10.0886C41.7037 10.3883 41.8957 10.9202 42.5433 10.9202H42.5474ZM62.0295 10.8028C62.722 10.8028 62.9345 10.2684 62.9978 9.97125C63.0305 9.85389 63.0305 9.65911 63.0305 9.55423V7.9036H62.0622V6.22551H65.3716V9.28204C65.3716 9.51677 65.3716 9.65911 65.3389 10.0487C65.1795 12.1438 63.7108 12.8705 62.0622 12.8705C60.4014 12.8705 58.9449 12.1413 58.7856 10.0487C58.7529 9.65911 58.7529 9.51427 58.7529 9.28204V4.47001C58.7529 4.28771 58.7856 3.89816 58.7856 3.71586C58.998 1.5708 60.4035 0.881585 62.0622 0.881585C63.7108 0.881585 65.1468 1.5708 65.3389 3.71586C65.3716 4.05298 65.3716 4.47001 65.3716 4.47001V4.85956H63.0305V4.2103C63.0305 4.2103 63.0305 3.93811 62.9978 3.78079C62.9651 3.52108 62.7752 2.94924 62.0622 2.94924C61.3697 2.94924 61.1899 3.48363 61.1266 3.78079C61.0939 3.93811 61.0939 4.13289 61.0939 4.32767V9.55672C61.0939 9.69906 61.0939 9.85638 61.1266 9.97375C61.1266 10.2734 61.3718 10.8053 62.0316 10.8053L62.0295 10.8028Z" fill="white"/>
</svg>
